<svg width="168" height="54" viewBox="0 0 168 54" fill="none" xmlns="http://www.w3.org/2000/svg">
<rect x="0.5" y="0.5" width="167" height="53" rx="26.5" fill="white"/>
<rect x="0.5" y="0.5" width="167" height="53" rx="26.5" stroke="#9B9B9B"/>
<path d="M34.776 35L30.336 17.84H32.592L35.304 29L35.952 31.904H36C36.272 30.688 36.512 29.704 36.72 28.952L39.816 17.84H42.144L45.144 28.952L45.84 31.904H45.888C46.16 30.672 46.384 29.704 46.56 29L49.416 17.84H51.6L46.824 35H44.76L41.616 22.904L40.992 20.288H40.944C40.704 21.36 40.488 22.232 40.296 22.904L36.936 35H34.776ZM53.4975 35V22.592H55.4415V35H53.4975ZM53.4975 20.24V17.84H55.4415V20.24H53.4975ZM60.2752 22.592V24.656H60.3232C60.7232 24 61.2432 23.472 61.8832 23.072C62.5232 22.656 63.2352 22.448 64.0193 22.448C64.3072 22.448 64.5712 22.496 64.8112 22.592V24.464H64.7393C64.4992 24.384 64.2112 24.344 63.8752 24.344C62.8832 24.344 62.0352 24.696 61.3312 25.4C60.6272 26.088 60.2752 26.992 60.2752 28.112V35H58.3312V22.592H60.2752ZM71.6331 35.336C69.7931 35.336 68.3291 34.72 67.2411 33.488C66.1691 32.24 65.6331 30.68 65.6331 28.808C65.6331 26.968 66.1771 25.424 67.2651 24.176C68.3691 22.912 69.7851 22.28 71.5131 22.28C73.3371 22.28 74.7451 22.92 75.7371 24.2C76.7291 25.464 77.2251 27.152 77.2251 29.264H67.6251C67.7051 30.576 68.0891 31.648 68.7771 32.48C69.4811 33.296 70.4331 33.704 71.6331 33.704C73.4891 33.704 74.6331 32.856 75.0651 31.16H76.9611C76.6731 32.488 76.0651 33.52 75.1371 34.256C74.2091 34.976 73.0411 35.336 71.6331 35.336ZM74.1051 24.872C73.4811 24.168 72.6171 23.816 71.5131 23.816C70.4091 23.816 69.5291 24.184 68.8731 24.92C68.2331 25.656 67.8331 26.616 67.6731 27.8H75.1371C75.0731 26.552 74.7291 25.576 74.1051 24.872ZM78.3396 24.176V22.592H80.0436V20.6C80.0436 19.576 80.3236 18.84 80.8836 18.392C81.4436 17.928 82.2596 17.696 83.3316 17.696C83.6356 17.696 83.9636 17.712 84.3156 17.744V19.4C84.0916 19.384 83.8836 19.376 83.6916 19.376C83.0676 19.376 82.6276 19.472 82.3716 19.664C82.1156 19.856 81.9876 20.2 81.9876 20.696V22.592H84.2916V24.176H81.9876V35H80.0436V24.176H78.3396ZM88.3703 22.592V24.656H88.4183C88.8183 24 89.3383 23.472 89.9783 23.072C90.6183 22.656 91.3303 22.448 92.1143 22.448C92.4023 22.448 92.6663 22.496 92.9063 22.592V24.464H92.8343C92.5943 24.384 92.3063 24.344 91.9703 24.344C90.9783 24.344 90.1303 24.696 89.4263 25.4C88.7223 26.088 88.3703 26.992 88.3703 28.112V35H86.4263V22.592H88.3703ZM104.168 35.12C102.936 35.12 102.224 34.504 102.032 33.272H102.008C100.984 34.584 99.6081 35.24 97.8801 35.24C96.6481 35.24 95.6401 34.944 94.8561 34.352C94.0721 33.76 93.6801 32.904 93.6801 31.784C93.6801 31.208 93.7681 30.712 93.9441 30.296C94.1361 29.864 94.3761 29.52 94.6641 29.264C94.9521 28.992 95.3441 28.76 95.8401 28.568C96.3521 28.36 96.8401 28.208 97.3041 28.112C97.7681 28 98.3601 27.888 99.0801 27.776C99.5441 27.712 99.8721 27.664 100.064 27.632C100.272 27.584 100.536 27.52 100.856 27.44C101.176 27.344 101.4 27.24 101.528 27.128C101.656 27.016 101.776 26.864 101.888 26.672C102 26.48 102.056 26.256 102.056 26C102.056 25.296 101.808 24.76 101.312 24.392C100.832 24.008 100.152 23.816 99.2721 23.816C97.2721 23.816 96.2401 24.728 96.1761 26.552H94.3041C94.3361 25.288 94.7681 24.272 95.6001 23.504C96.4481 22.736 97.6641 22.352 99.2481 22.352C102.304 22.352 103.832 23.664 103.832 26.288V32.192C103.832 32.736 103.92 33.12 104.096 33.344C104.288 33.568 104.64 33.624 105.152 33.512H105.224V34.928C104.904 35.056 104.552 35.12 104.168 35.12ZM98.3121 33.752C99.5121 33.752 100.44 33.408 101.096 32.72C101.752 32.016 102.08 31.248 102.08 30.416V28.304C101.488 28.672 100.544 28.976 99.2481 29.216C98.7681 29.312 98.3921 29.392 98.1201 29.456C97.8481 29.504 97.5361 29.6 97.1841 29.744C96.8321 29.872 96.5681 30.016 96.3921 30.176C96.2161 30.336 96.0641 30.552 95.9361 30.824C95.8081 31.08 95.7441 31.384 95.7441 31.736C95.7441 33.08 96.6001 33.752 98.3121 33.752ZM106.898 35V22.592H108.842V24.368H108.89C109.29 23.744 109.81 23.248 110.45 22.88C111.09 22.496 111.786 22.304 112.538 22.304C114.154 22.304 115.234 23.04 115.778 24.512H115.826C116.21 23.824 116.746 23.288 117.434 22.904C118.122 22.504 118.85 22.304 119.618 22.304C120.754 22.304 121.666 22.656 122.354 23.36C123.042 24.048 123.386 25.024 123.386 26.288V35H121.442V26.384C121.442 25.632 121.218 25.04 120.77 24.608C120.338 24.16 119.802 23.936 119.162 23.936C118.346 23.936 117.634 24.256 117.026 24.896C116.418 25.536 116.114 26.328 116.114 27.272V35H114.17V26.384C114.17 25.632 113.97 25.04 113.57 24.608C113.186 24.16 112.674 23.936 112.034 23.936C111.234 23.936 110.498 24.264 109.826 24.92C109.17 25.56 108.842 26.344 108.842 27.272V35H106.898ZM131.497 35.336C129.657 35.336 128.193 34.72 127.105 33.488C126.033 32.24 125.497 30.68 125.497 28.808C125.497 26.968 126.041 25.424 127.129 24.176C128.233 22.912 129.649 22.28 131.377 22.28C133.201 22.28 134.609 22.92 135.601 24.2C136.593 25.464 137.089 27.152 137.089 29.264H127.489C127.569 30.576 127.953 31.648 128.641 32.48C129.345 33.296 130.297 33.704 131.497 33.704C133.353 33.704 134.497 32.856 134.929 31.16H136.825C136.537 32.488 135.929 33.52 135.001 34.256C134.073 34.976 132.905 35.336 131.497 35.336ZM133.969 24.872C133.345 24.168 132.481 23.816 131.377 23.816C130.273 23.816 129.393 24.184 128.737 24.92C128.097 25.656 127.697 26.616 127.537 27.8H135.001C134.937 26.552 134.593 25.576 133.969 24.872Z" fill="#090909"/>
</svg>
