<?xml version="1.0" encoding="UTF-8"?>
<svg xmlns="http://www.w3.org/2000/svg" xmlns:xlink="http://www.w3.org/1999/xlink" width="217px" height="256px" viewBox="0 0 217 256" version="1.1">
<defs>
<filter id="alpha" filterUnits="objectBoundingBox" x="0%" y="0%" width="100%" height="100%">
  <feColorMatrix type="matrix" in="SourceGraphic" values="0 0 0 0 1 0 0 0 0 1 0 0 0 0 1 0 0 0 1 0"/>
</filter>
<mask id="mask0">
  <g filter="url(#alpha)">
<rect x="0" y="0" width="217" height="256" style="fill:rgb(0%,0%,0%);fill-opacity:0.74902;stroke:none;"/>
  </g>
</mask>
<clipPath id="clip1">
  <rect x="0" y="0" width="217" height="256"/>
</clipPath>
<g id="surface5" clip-path="url(#clip1)">
<path style=" stroke:none;fill-rule:nonzero;fill:rgb(0%,0%,0%);fill-opacity:1;" d="M 150.847656 83.242188 C 144.53125 91.703125 141.585938 100.476562 141.734375 110.960938 C 142.226562 146.011719 141.433594 181.089844 142.152344 216.132812 C 142.457031 230.902344 135.246094 240.320312 124.566406 248.402344 C 122.03125 250.320312 119.011719 251.695312 116.0625 252.964844 C 109.574219 255.75 104.429688 252.539062 104.421875 245.636719 C 104.371094 199.394531 104.265625 153.152344 104.621094 106.914062 C 104.652344 103.039062 107.035156 98.304688 109.859375 95.503906 C 116.410156 89.019531 123.445312 82.796875 131.109375 77.695312 C 143.878906 69.199219 156.863281 60.773438 172.023438 56.898438 C 174.128906 56.359375 176.640625 57.394531 178.960938 57.703125 C 177.566406 59.449219 176.527344 61.878906 174.710938 62.828125 C 165.277344 67.761719 157.292969 74.265625 150.847656 83.242188 Z M 150.847656 83.242188 "/>
</g>
<mask id="mask1">
  <g filter="url(#alpha)">
<rect x="0" y="0" width="217" height="256" style="fill:rgb(0%,0%,0%);fill-opacity:0.74902;stroke:none;"/>
  </g>
</mask>
<clipPath id="clip2">
  <rect x="0" y="0" width="217" height="256"/>
</clipPath>
<g id="surface8" clip-path="url(#clip2)">
<path style=" stroke:none;fill-rule:nonzero;fill:rgb(0%,0%,0%);fill-opacity:1;" d="M 77.546875 45.539062 C 96.839844 34.066406 115.671875 22.640625 134.707031 11.558594 C 160.175781 -3.273438 189.109375 2.175781 207.890625 25.09375 C 209.878906 27.519531 211.644531 30.132812 213.515625 32.660156 C 213.28125 33.257812 213.046875 33.859375 212.816406 34.460938 C 209.460938 34.132812 205.929688 34.367188 202.777344 33.390625 C 181.386719 26.753906 161.203125 30.527344 142.488281 41.410156 C 126.757812 50.550781 111.996094 61.332031 96.617188 71.089844 C 84.117188 79.027344 71.460938 86.746094 56.363281 89.050781 C 40.207031 91.519531 26.242188 87.261719 14.664062 75.78125 C 10.554688 71.707031 6.886719 67.191406 1.941406 61.675781 C 5.660156 61.152344 7.925781 60.179688 9.808594 60.671875 C 34.875 67.191406 56.621094 59.191406 77.546875 45.539062 Z M 77.546875 45.539062 "/>
</g>
</defs>
<g id="surface1">
<use xlink:href="#surface5" mask="url(#mask0)"/>
<use xlink:href="#surface8" mask="url(#mask1)"/>
</g>
</svg>
