<svg version="1.1" id="Layer_1" xmlns="http://www.w3.org/2000/svg" xmlns:xlink="http://www.w3.org/1999/xlink" x="0px" y="0px"
	 width="100%" viewBox="0 0 500 500" enable-background="new 0 0 500 500" xml:space="preserve">

<path fill="#FFFFFF" opacity=".75000" stroke="none" 
	d="
M132.078979,248.161591 
	C126.548218,255.599487 123.968925,263.308136 124.098137,272.523560 
	C124.530106,303.332184 123.834244,334.159332 124.464760,364.961090 
	C124.730484,377.942352 118.417587,386.220520 109.066460,393.323212 
	C106.846443,395.009430 104.203796,396.216858 101.620377,397.331116 
	C95.941216,399.780701 91.436768,396.959503 91.429955,390.891052 
	C91.384331,350.249084 91.293854,309.606140 91.603577,268.966492 
	C91.629524,265.561127 93.716583,261.399231 96.189751,258.940216 
	C101.924530,253.238281 108.085526,247.769989 114.795883,243.288223 
	C125.976555,235.820801 137.345871,228.414932 150.620773,225.006836 
	C152.463501,224.533752 154.661499,225.444366 156.695023,225.714417 
	C155.472046,227.249802 154.563904,229.384811 152.973282,230.220001 
	C144.712433,234.557434 137.722275,240.273697 132.078979,248.161591 
z"/>
<path fill="#FFFFFF" opacity=".75000" stroke="none" 
	d="
M67.899529,215.025055 
	C84.790405,204.942245 101.279121,194.898209 117.945320,185.157822 
	C140.246185,172.124329 165.578659,176.913971 182.022537,197.054138 
	C183.765350,199.188705 185.311966,201.483459 186.949600,203.703903 
	C186.744858,204.231705 186.540115,204.759506 186.335373,205.287308 
	C183.397949,205.000336 180.307053,205.206131 177.547867,204.346863 
	C158.817642,198.513687 141.147079,201.831116 124.757729,211.394058 
	C110.985771,219.429779 98.060555,228.903961 84.595871,237.482971 
	C73.650047,244.457077 62.569645,251.241867 49.348774,253.268158 
	C35.205719,255.435806 22.976700,251.695648 12.838586,241.604401 
	C9.241141,238.023590 6.029974,234.054688 1.698658,229.206512 
	C4.957049,228.747787 6.939585,227.893555 8.586715,228.323700 
	C30.534592,234.055283 49.574421,227.023621 67.899529,215.025055 
z"/>
</svg>